<?xml version="1.0"?>
<!DOCTYPE svg PUBLIC "-//W3C//DTD SVG 1.0//EN" "http://www.w3.org/TR/2001/REC-SVG-20010904/DTD/svg10.dtd">
<svg xmlns="http://www.w3.org/2000/svg" xmlns:xlink="http://www.w3.org/1999/xlink" xmlns:jfreesvg="http://www.jfree.org/jfreesvg/svg" width="592" height="532" text-rendering="auto" shape-rendering="auto">
<defs></defs>
<line x1="142.5" y1="7.5" x2="412.5" y2="7.5" style="stroke-width: 1.5;stroke: rgb(0,0,0);stroke-opacity: 1.0;stroke-dasharray: 9.0;" /><line x1="142.5" y1="67.5" x2="412.5" y2="67.5" style="stroke-width: 1.5;stroke: rgb(0,0,0);stroke-opacity: 1.0;stroke-dasharray: 9.0;" /><line x1="127.5" y1="97.5" x2="232.5" y2="97.5" style="stroke-width: 1.5;stroke: rgb(0,0,0);stroke-opacity: 1.0;stroke-linecap: square;" /><line x1="322.5" y1="97.5" x2="442.5" y2="97.5" style="stroke-width: 1.5;stroke: rgb(0,0,0);stroke-opacity: 1.0;stroke-linecap: square;" /><line x1="7.5" y1="127.5" x2="247.5" y2="127.5" style="stroke-width: 1.5;stroke: rgb(0,0,0);stroke-opacity: 1.0;stroke-linecap: square;" /><line x1="307.5" y1="127.5" x2="562.5" y2="127.5" style="stroke-width: 1.5;stroke: rgb(0,0,0);stroke-opacity: 1.0;stroke-linecap: square;" /><line x1="7.5" y1="187.5" x2="247.5" y2="187.5" style="stroke-width: 1.5;stroke: rgb(0,0,0);stroke-opacity: 1.0;stroke-linecap: square;" /><line x1="307.5" y1="187.5" x2="562.5" y2="187.5" style="stroke-width: 1.5;stroke: rgb(0,0,0);stroke-opacity: 1.0;stroke-linecap: square;" /><line x1="22.5" y1="232.5" x2="232.5" y2="232.5" style="stroke-width: 1.5;stroke: rgb(0,0,0);stroke-opacity: 1.0;stroke-linecap: square;" /><line x1="307.5" y1="232.5" x2="577.5" y2="232.5" style="stroke-width: 1.5;stroke: rgb(0,0,0);stroke-opacity: 1.0;stroke-dasharray: 9.0;" /><line x1="22.5" y1="292.5" x2="232.5" y2="292.5" style="stroke-width: 1.5;stroke: rgb(0,0,0);stroke-opacity: 1.0;stroke-linecap: square;" /><line x1="307.5" y1="292.5" x2="577.5" y2="292.5" style="stroke-width: 1.5;stroke: rgb(0,0,0);stroke-opacity: 1.0;stroke-dasharray: 9.0;" /><line x1="337.5" y1="337.5" x2="547.5" y2="337.5" style="stroke-width: 1.5;stroke: rgb(0,0,0);stroke-opacity: 1.0;stroke-linecap: square;" /><line x1="337.5" y1="397.5" x2="547.5" y2="397.5" style="stroke-width: 1.5;stroke: rgb(0,0,0);stroke-opacity: 1.0;stroke-linecap: square;" /><line x1="232.5" y1="427.5" x2="442.5" y2="427.5" style="stroke-width: 1.5;stroke: rgb(0,0,0);stroke-opacity: 1.0;stroke-linecap: square;" /><line x1="37.5" y1="457.5" x2="322.5" y2="457.5" style="stroke-width: 1.5;stroke: rgb(0,0,0);stroke-opacity: 1.0;stroke-linecap: square;" /><line x1="37.5" y1="517.5" x2="322.5" y2="517.5" style="stroke-width: 1.5;stroke: rgb(0,0,0);stroke-opacity: 1.0;stroke-linecap: square;" /><line x1="142.5" y1="7.5" x2="142.5" y2="67.5" style="stroke-width: 1.5;stroke: rgb(0,0,0);stroke-opacity: 1.0;stroke-dasharray: 9.0;" /><line x1="412.5" y1="7.5" x2="412.5" y2="67.5" style="stroke-width: 1.5;stroke: rgb(0,0,0);stroke-opacity: 1.0;stroke-dasharray: 9.0;" /><line x1="232.5" y1="67.5" x2="232.5" y2="97.5" style="stroke-width: 1.5;stroke: rgb(0,0,0);stroke-opacity: 1.0;stroke-linecap: square;" /><line x1="322.5" y1="67.5" x2="322.5" y2="97.5" style="stroke-width: 1.5;stroke: rgb(0,0,0);stroke-opacity: 1.0;stroke-linecap: square;" /><line x1="127.5" y1="97.5" x2="127.5" y2="120" style="stroke-width: 1.5;stroke: rgb(0,0,0);stroke-opacity: 1.0;stroke-linecap: square;" /><g style="fill: rgb(0,0,0); fill-opacity: 1.0; stroke: none" ><path d="M 127.5 127.5 L 122.5 112.5 L 132.5 112.5 Z "/></g><line x1="442.5" y1="97.5" x2="442.5" y2="120" style="stroke-width: 1.5;stroke: rgb(0,0,0);stroke-opacity: 1.0;stroke-linecap: square;" /><g style="fill: rgb(0,0,0); fill-opacity: 1.0; stroke: none" ><path d="M 442.5 127.5 L 437.5 112.5 L 447.5 112.5 Z "/></g><line x1="7.5" y1="127.5" x2="7.5" y2="187.5" style="stroke-width: 1.5;stroke: rgb(0,0,0);stroke-opacity: 1.0;stroke-linecap: square;" /><line x1="247.5" y1="127.5" x2="247.5" y2="187.5" style="stroke-width: 1.5;stroke: rgb(0,0,0);stroke-opacity: 1.0;stroke-linecap: square;" /><line x1="307.5" y1="127.5" x2="307.5" y2="187.5" style="stroke-width: 1.5;stroke: rgb(0,0,0);stroke-opacity: 1.0;stroke-linecap: square;" /><line x1="562.5" y1="127.5" x2="562.5" y2="187.5" style="stroke-width: 1.5;stroke: rgb(0,0,0);stroke-opacity: 1.0;stroke-linecap: square;" /><line x1="127.5" y1="187.5" x2="127.5" y2="225" style="stroke-width: 1.5;stroke: rgb(0,0,0);stroke-opacity: 1.0;stroke-linecap: square;" /><g style="fill: rgb(0,0,0); fill-opacity: 1.0; stroke: none" ><path d="M 127.5 232.5 L 122.5 217.5 L 132.5 217.5 Z "/></g><line x1="442.5" y1="187.5" x2="442.5" y2="225" style="stroke-width: 1.5;stroke: rgb(0,0,0);stroke-opacity: 1.0;stroke-linecap: square;" /><g style="fill: rgb(0,0,0); fill-opacity: 1.0; stroke: none" ><path d="M 442.5 232.5 L 437.5 217.5 L 447.5 217.5 Z "/></g><line x1="22.5" y1="232.5" x2="22.5" y2="292.5" style="stroke-width: 1.5;stroke: rgb(0,0,0);stroke-opacity: 1.0;stroke-linecap: square;" /><line x1="232.5" y1="232.5" x2="232.5" y2="292.5" style="stroke-width: 1.5;stroke: rgb(0,0,0);stroke-opacity: 1.0;stroke-linecap: square;" /><line x1="307.5" y1="232.5" x2="307.5" y2="292.5" style="stroke-width: 1.5;stroke: rgb(0,0,0);stroke-opacity: 1.0;stroke-dasharray: 9.0;" /><line x1="577.5" y1="232.5" x2="577.5" y2="292.5" style="stroke-width: 1.5;stroke: rgb(0,0,0);stroke-opacity: 1.0;stroke-dasharray: 9.0;" /><line x1="127.5" y1="292.5" x2="127.5" y2="450" style="stroke-width: 1.5;stroke: rgb(0,0,0);stroke-opacity: 1.0;stroke-linecap: square;" /><g style="fill: rgb(0,0,0); fill-opacity: 1.0; stroke: none" ><path d="M 127.5 457.5 L 122.5 442.5 L 132.5 442.5 Z "/></g><line x1="442.5" y1="292.5" x2="442.5" y2="330" style="stroke-width: 1.5;stroke: rgb(0,0,0);stroke-opacity: 1.0;stroke-linecap: square;" /><g style="fill: rgb(0,0,0); fill-opacity: 1.0; stroke: none" ><path d="M 442.5 337.5 L 437.5 322.5 L 447.5 322.5 Z "/></g><line x1="337.5" y1="337.5" x2="337.5" y2="397.5" style="stroke-width: 1.5;stroke: rgb(0,0,0);stroke-opacity: 1.0;stroke-linecap: square;" /><line x1="547.5" y1="337.5" x2="547.5" y2="397.5" style="stroke-width: 1.5;stroke: rgb(0,0,0);stroke-opacity: 1.0;stroke-linecap: square;" /><line x1="442.5" y1="397.5" x2="442.5" y2="427.5" style="stroke-width: 1.5;stroke: rgb(0,0,0);stroke-opacity: 1.0;stroke-linecap: square;" /><line x1="232.5" y1="427.5" x2="232.5" y2="450" style="stroke-width: 1.5;stroke: rgb(0,0,0);stroke-opacity: 1.0;stroke-linecap: square;" /><g style="fill: rgb(0,0,0); fill-opacity: 1.0; stroke: none" ><path d="M 232.5 457.5 L 227.5 442.5 L 237.5 442.5 Z "/></g><line x1="37.5" y1="457.5" x2="37.5" y2="517.5" style="stroke-width: 1.5;stroke: rgb(0,0,0);stroke-opacity: 1.0;stroke-linecap: square;" /><line x1="322.5" y1="457.5" x2="322.5" y2="517.5" style="stroke-width: 1.5;stroke: rgb(0,0,0);stroke-opacity: 1.0;stroke-linecap: square;" /><g ><text x="203.5" y="45.5" style="fill: rgb(0,0,0); fill-opacity: 1.0; font-family: Fira Code; font-size: 23px;" >$1 = eval x</text></g><g ><text x="67.5" y="165.5" style="fill: rgb(0,0,0); fill-opacity: 1.0; font-family: Fira Code; font-size: 23px;" >assume $1</text></g><g ><text x="360.5" y="165.5" style="fill: rgb(0,0,0); fill-opacity: 1.0; font-family: Fira Code; font-size: 23px;" >assume !$1</text></g><g ><text x="80.5" y="270.5" style="fill: rgb(0,0,0); fill-opacity: 1.0; font-family: Fira Code; font-size: 23px;" >$3 = $1</text></g><g ><text x="368.5" y="270.5" style="fill: rgb(0,0,0); fill-opacity: 1.0; font-family: Fira Code; font-size: 23px;" >$2 = eval y</text></g><g ><text x="395.5" y="375.5" style="fill: rgb(0,0,0); fill-opacity: 1.0; font-family: Fira Code; font-size: 23px;" >$3 = $2</text></g><g ><text x="91.5" y="495.5" style="fill: rgb(0,0,0); fill-opacity: 1.0; font-family: Fira Code; font-size: 23px;" >$result = $3</text></g></svg>
